HIERARCHY
ROOT Hips
{
	OFFSET 0.000000 0.000000 0.000000 
	CHANNELS 6 Xposition Yposition Zposition Zrotation Yrotation Xrotation
	JOINT LeftUpLeg
	{
		OFFSET 1.363060 -1.794630 0.839290 
		CHANNELS 3 Zrotation Yrotation Xrotation
		JOINT LeftLeg
		{
			OFFSET 2.448110 -6.726130 0.000000 
			CHANNELS 3 Zrotation Yrotation Xrotation
			JOINT LeftFoot
			{
				OFFSET 2.562200 -7.039590 0.000000 
				CHANNELS 3 Zrotation Yrotation Xrotation
				JOINT LeftToeBase
				{
					OFFSET 0.157640 -0.433110 2.322550 
					CHANNELS 3 Zrotation Yrotation Xrotation
					End Site
					{
						OFFSET 0.000000 0.000000 0.000000 
					}
				}
			}
		}
	}
	JOINT RightUpLeg
	{
		OFFSET -1.305520 -1.794630 0.839290 
		CHANNELS 3 Zrotation Yrotation Xrotation
		JOINT RightLeg
		{
			OFFSET -2.542530 -6.985550 0.000000 
			CHANNELS 3 Zrotation Yrotation Xrotation
			JOINT RightFoot
			{
				OFFSET -2.568260 -7.056230 0.000000 
				CHANNELS 3 Zrotation Yrotation Xrotation
				JOINT RightToeBase
				{
					OFFSET -0.164730 -0.452590 2.363150 
					CHANNELS 3 Zrotation Yrotation Xrotation
					End Site
					{
						OFFSET 0.000000 0.000000 0.000000 
					}
				}
			}
		}
	}
	JOINT Spine
	{
		OFFSET 0.028270 2.035590 -0.193380 
		CHANNELS 3 Zrotation Yrotation Xrotation
		JOINT Spine1
		{
			OFFSET 0.056720 2.048850 -0.042750 
			CHANNELS 3 Zrotation Yrotation Xrotation
			JOINT Neck1
			{
				OFFSET -0.054170 1.746240 0.172020 
				CHANNELS 3 Zrotation Yrotation Xrotation
				JOINT Head
				{
					OFFSET 0.104070 1.761360 -0.123970 
					CHANNELS 3 Zrotation Yrotation Xrotation
					End Site
					{
						OFFSET 0.000000 0.000000 0.000000 
					}
				}
			}
			JOINT LeftArm
			{
				OFFSET 3.362410 1.200890 -0.311210 
				CHANNELS 3 Zrotation Yrotation Xrotation
				JOINT LeftForeArm
				{
					OFFSET 4.983000 -0.000000 -0.000000 
					CHANNELS 3 Zrotation Yrotation Xrotation
					JOINT LeftHand
					{
						OFFSET 3.483560 -0.000000 -0.000000 
						CHANNELS 3 Zrotation Yrotation Xrotation
						JOINT LeftHandIndex1
						{
							OFFSET 0.715260 -0.000000 -0.000000 
							CHANNELS 3 Zrotation Yrotation Xrotation
							End Site
							{
								OFFSET 0.000000 0.000000 0.000000 
							}
						}
					}
				}
			}
			JOINT RightArm
			{
				OFFSET -3.136600 1.374050 -0.404650 
				CHANNELS 3 Zrotation Yrotation Xrotation
				JOINT RightForeArm
				{
					OFFSET -5.241900 -0.000000 -0.000000 
					CHANNELS 3 Zrotation Yrotation Xrotation
					JOINT RightHand
					{
						OFFSET -3.444170 -0.000000 -0.000000 
						CHANNELS 3 Zrotation Yrotation Xrotation
						JOINT RightHandIndex1
						{
							OFFSET -0.622530 -0.000000 -0.000000 
							CHANNELS 3 Zrotation Yrotation Xrotation
							End Site
							{
								OFFSET 0.000000 0.000000 0.000000 
							}
						}
					}
				}
			}
		}
	}
}
MOTION
Frames: 9
Frame Time: 0.041667
-9.402087 17.702695 -32.816154 0.092358 -0.209073 -0.538628 -19.894237 -6.209494 -8.326857 9.971923 16.711075 60.519290 2.005739 -4.756168 26.284471 0.421200 -4.165300 -11.542100 26.057808 11.624374 -17.906323 -2.484063 -9.985252 30.508733 0.804576 -5.283265 2.208800 -0.132200 -2.343400 6.455700 4.763905 -5.466009 -3.403533 8.221134 -2.311935 -4.293352 6.631078 2.398670 11.301850 3.757700 0.689500 6.279200 -82.723877 1.696545 15.734970 10.616285 -22.019943 -2.861791 -1.504735 -3.059625 9.386083 -7.125000 0.000000 0.000000 -6.664643 -2.025960 0.003317 1.617576 0.470976 0.000100 0.151975 0.043730 0.000050 0.000000 0.000000 0.000000 
-9.452084 17.717316 -32.574755 0.071249 -3.512143 -0.034396 -19.678303 -3.586147 -11.186812 10.254903 16.935061 61.512675 1.764821 -5.114794 23.039805 0.467700 -4.386200 -12.165900 26.647675 13.754698 -16.814402 -2.444540 -9.899136 30.353835 0.617953 -4.395830 2.046055 -0.169400 -2.651900 7.310900 5.119081 -4.567454 -3.562985 10.422691 -1.662622 -5.145873 6.169227 3.024827 11.781296 3.652600 0.899800 6.384700 -84.240209 3.523658 14.536352 10.642612 -22.052441 -2.870006 -1.529372 -2.987907 10.146239 -7.125000 0.000000 0.000000 -6.585656 -1.985889 0.003392 1.558521 0.456205 0.000099 0.144525 0.041651 0.000049 0.000000 0.000000 0.000000 
-9.485927 17.745331 -32.335707 -0.106117 -6.736948 0.459303 -19.457181 -1.057680 -13.849509 10.409645 17.093826 61.970537 1.662411 -4.687151 22.045485 0.144100 -2.446100 -6.740100 27.264116 15.289950 -15.575705 -2.307196 -9.660247 29.714070 0.353075 -3.146677 2.359393 -0.113600 -2.172900 5.983800 5.127375 -3.162964 -3.456556 10.729145 -0.912494 -5.135112 6.267282 2.924546 12.146874 3.718400 0.832100 6.507100 -84.517544 4.342398 14.683521 10.522171 -21.906558 -2.827710 -1.552708 -2.867899 10.797393 -7.125000 0.000000 0.000000 -6.579749 -1.975954 0.003440 1.548999 0.454231 0.000099 0.143394 0.041345 0.000050 0.000000 0.000000 0.000000 
-9.493187 17.789705 -32.086844 -0.323303 -8.623582 0.783139 -19.415101 0.119318 -15.996864 10.551819 17.245015 62.323915 1.396349 -3.660442 19.776205 0.124800 -2.276900 -6.271500 27.657482 15.739229 -14.447116 -2.199493 -9.451296 29.179998 0.158964 -2.194328 2.464356 -0.061200 -1.596500 4.391700 4.838860 -1.561594 -3.237245 9.439917 -0.180984 -4.832290 6.629919 2.081051 12.372942 3.749100 0.489300 6.807300 -83.779925 4.192970 16.751109 10.341476 -21.662661 -2.739417 -1.579084 -2.854907 10.959298 -7.125000 0.000000 0.000000 -6.625231 -2.003668 0.003269 1.576463 0.460561 0.000099 0.146884 0.042259 0.000049 0.000000 0.000000 0.000000 
-9.435521 17.833057 -31.781747 -0.431594 -2.604918 -0.322677 -19.561091 -5.554183 -15.165086 10.619534 17.329970 62.472701 1.051398 -2.599200 16.766250 0.335900 -3.724400 -10.302600 27.507303 10.809441 -13.088666 -2.170809 -9.217011 28.715036 0.567172 -3.979465 0.677421 -0.051700 -1.466700 4.033800 4.416657 -3.005558 -3.156545 6.611210 -1.096653 -4.258359 6.719059 0.634530 12.430813 3.493400 -0.082100 7.315000 -82.496199 3.233772 20.049626 10.104395 -21.302604 -2.608583 -1.507957 -3.008754 10.001738 -7.125000 0.000000 0.000000 -6.718527 -2.070415 0.002913 1.643325 0.475588 0.000099 0.155477 0.044508 0.000049 0.000000 0.000000 0.000000 
-9.441758 17.842770 -31.521126 -0.602296 -2.505128 -0.613328 -19.264070 -5.910110 -16.593218 10.683131 17.412385 62.609795 0.810025 -1.848287 14.147746 0.418800 -4.153500 -11.509100 28.006743 10.276791 -11.721018 -2.113317 -9.003368 28.270309 0.634078 -4.209375 0.195330 -0.032700 -1.167000 3.208300 5.421427 -5.759493 -3.800690 10.913334 -2.152397 -5.640925 6.191512 3.886879 12.363433 3.921700 1.204100 6.412400 -86.630266 7.490736 14.578391 10.520624 -21.919950 -2.783979 -1.341255 -3.189799 8.602340 -7.125000 0.000000 0.000000 -6.560858 -1.992698 0.003299 1.544919 0.451082 0.000099 0.142824 0.041028 0.000050 0.000000 0.000000 0.000000 
-9.443598 17.848496 -31.266742 -1.181065 -2.899204 -0.325560 -19.150258 -5.971991 -18.158457 10.694204 17.494527 62.583681 0.562877 -0.809032 12.028285 0.376500 -3.940800 -10.910200 28.367513 9.995507 -10.738149 -2.047616 -8.908724 27.944703 0.620161 -4.137835 -0.262003 -0.009600 -0.632200 1.737200 3.082181 -4.091385 -2.683845 11.456936 -1.200051 -5.817367 4.063845 2.464456 12.955203 3.807100 0.456400 6.841800 -86.233933 6.241121 18.913268 10.879935 -20.881356 -2.511415 -1.045023 -3.474851 7.985014 -7.125000 0.000000 0.000000 75.583166 -8.431047 16.346313 -11.438651 17.931128 -2.414671 1.148910 -1.000081 10.365566 7.125000 0.000000 0.000000 
-9.509444 17.844304 -31.062969 -1.827819 -9.468643 1.026601 -18.352960 -0.641556 -22.158241 10.697594 17.617002 62.499362 0.308202 0.341010 9.699276 0.338800 -3.740700 -10.348200 29.405861 14.266447 -9.783618 -1.974418 -8.849104 27.750334 0.180701 -2.133670 0.285270 -0.002500 -0.321700 0.883900 2.552372 0.117707 -2.264500 9.821642 0.715588 -4.586202 4.428009 1.051808 12.931865 3.668700 -0.074400 7.406200 -84.320346 4.573222 22.244478 10.504852 -20.250976 -2.326630 -0.911284 -3.544493 7.944831 -7.125000 0.000000 0.000000 77.565800 -6.447128 7.751547 -10.320130 16.202457 -1.881563 0.745505 -2.555394 15.704365 7.125000 0.000000 0.000000 
-9.487052 17.827842 -30.769221 -1.850614 -2.247726 -0.340504 -18.303301 -7.084305 -20.966839 10.561031 17.593706 62.066727 0.111367 1.118978 8.456144 0.335800 -3.724100 -10.301900 29.647102 9.526060 -8.498570 -2.053588 -8.780732 27.802770 0.840773 -5.138019 -2.529087 -0.003500 -0.384700 1.056900 2.840446 -3.539269 -2.544538 10.196004 -1.011944 -5.457790 4.288776 1.639575 13.009920 3.749100 0.137400 7.175800 -85.233594 6.361525 21.600312 10.448946 -20.194609 -2.307853 -0.876457 -3.545441 7.879605 -7.125000 0.000000 0.000000 76.586729 -6.919899 10.516267 -10.678452 16.835388 -2.053840 0.787845 -2.386586 14.309630 7.125000 0.000000 0.000000 
